<?xml version="1.0" encoding="UTF-8"?>
<svg width="1921" height="870" version="1.1" viewBox="0 0 1921 870" xmlns="http://www.w3.org/2000/svg" xmlns:xlink="http://www.w3.org/1999/xlink">
<title>Slider BG Illustration</title>
<desc>Created with Sketch.</desc>
<defs>
<linearGradient id="v" x1="-15.067%" x2="78.11%" y1="41.593%" y2="54.709%">
<stop stop-color="#C444FB" offset="0"/>
<stop stop-color="#5B56D7" offset="1"/>
</linearGradient>
<linearGradient id="n" x1="26.978%" x2="73.803%" y1="46.463%" y2="54.85%">
<stop stop-color="#8915FF" offset="0"/>
<stop stop-color="#6900CF" offset="1"/>
</linearGradient>
<path id="a" d="m567.01 35 1775.6 5.1e-6c143.74 0 278.59 69.55 361.92 186.66 261.84 367.97 329.99 551.96 204.43 551.96-217.86 0-339.44 236.5-434.97 176.68-235.37-147.4-738.56-93.267-963.98-93.267-261.87 0-317.88 93.267-654.17 93.267-402.29 0-491.77-270.17-762.25-238.23-152.64 18.024-118.57-140.92 102.21-476.85h-1e-6c82.14-124.98 221.65-200.23 371.2-200.23z"/>
<linearGradient id="l" x1="5.1693%" x2="46.753%" y1="6.9928%" y2="89.344%">
<stop stop-color="#5700AF" offset="0"/>
<stop stop-color="#6B01D2" stop-opacity="0" offset="1"/>
</linearGradient>
<linearGradient id="e" x1="50%" x2="50%" y1="-48.834%" y2="100%">
<stop stop-color="#F0FF00" offset="0"/>
<stop stop-color="#58CFFB" offset="1"/>
</linearGradient>
<linearGradient id="k" x1="50%" x2="50%" y2="100%">
<stop stop-color="#00CCD8" offset="0"/>
<stop stop-color="#A859F9" offset="1"/>
</linearGradient>
<polygon id="i" points="5.2308e-4 0.0288 33.557 0.0288 33.557 65.627 5.2308e-4 65.627"/>
<linearGradient id="u" x1="-15.067%" x2="78.11%" y1="-20.806%" y2="89.663%">
<stop stop-color="#C444FB" offset="0"/>
<stop stop-color="#5B56D7" offset="1"/>
</linearGradient>
<linearGradient id="t" x1="5.1693%" x2="70.601%" y1="13.54%" y2="93.8%">
<stop stop-color="#5700AF" offset="0"/>
<stop stop-color="#6B01D2" offset="1"/>
</linearGradient>
<path id="d" d="m2337 394c-20.183 0.071213-40.206 8.1288-56.098 20.567-62.346 48.797-58.876 21.302-103.15-3.0882-31.255-17.218-82.708-8.325-84.678 57.843-0.02604 0.90146-0.04166 1.7925-0.04513 2.6731v0.80072c0.36102 91.193 125.63 66.739 102.08 154.99-23.848 89.356 48.113 112.51 92.023 109.6 73.385-4.8668 4.6569 49.318 55.77 114.55 42.457 54.181 121.39 27.957 167.6-6.6194 29.224-21.861 52.763-50.626 72.005-81.647 21.613-34.843 38.197-73.081 46.22-113.3 6.2624-31.395 7.2118-64 1.5899-95.567-4.7922-26.915-12.851-57.207-35.625-74.609-17.4-13.296-42.86-17.461-64.179-13.876-25.291 4.252-46.596 20.688-71.233 27.148-10.242 2.6853-21.646 3.5311-30.982-1.4694-9.6939-5.1916-15.347-15.712-18.652-26.205-3.3065-10.494-4.8443-21.559-9.1575-31.68-7.7586-18.191-24.468-32.027-43.484-37.415-6.4151-1.8185-12.948-2.6783-19.471-2.6992h-0.53459z"/>
<linearGradient id="s" x1="-15.067%" x2="78.11%" y1="-20.993%" y2="89.768%">
<stop stop-color="#C444FB" offset="0"/>
<stop stop-color="#5B56D7" offset="1"/>
</linearGradient>
<linearGradient id="r" x1="96.077%" x2="47.428%" y1="28.233%" y2="84.214%">
<stop stop-color="#6700CF" offset="0"/>
<stop stop-color="#7B0EEA" offset="1"/>
</linearGradient>
<path id="c" d="m428.54 305c-22.794 0.080534-45.408 9.1926-63.356 23.259-70.413 55.183-66.495 24.089-116.5-3.4924-35.299-19.472-93.409-9.4146-95.634 65.413-0.029404 1.0194-0.047046 2.0271-0.050967 3.023v0.90552c0.40774 103.13 141.89 75.474 115.29 175.28-26.934 101.05 54.339 127.24 103.93 123.95 82.88-5.5038 5.2594 55.773 62.986 129.54 47.95 61.273 137.1 31.616 189.29-7.4857 33.005-24.722 59.59-57.252 81.322-92.333 24.409-39.403 43.14-82.645 52.2-128.13 7.0727-35.504 8.1449-72.376 1.7956-108.07-5.4123-30.438-14.514-64.694-40.235-84.374-19.652-15.036-48.405-19.747-72.483-15.692-28.563 4.8085-52.626 23.396-80.45 30.701-11.568 3.0367-24.447 3.9933-34.991-1.6617-10.948-5.8711-17.333-17.769-21.065-29.634-3.7343-11.868-5.4711-24.38-10.342-35.826-8.7624-20.571-27.634-36.219-49.111-42.312-7.2452-2.0566-14.624-3.0289-21.99-3.0524h-0.60376z"/>
<linearGradient id="q" x1="-15.067%" x2="78.11%" y1="-36.666%" y2="98.547%">
<stop stop-color="#C444FB" offset="0"/>
<stop stop-color="#5B56D7" offset="1"/>
</linearGradient>
<linearGradient id="p" x1="5.1693%" x2="70.601%" y1="5.3739%" y2="103.61%">
<stop stop-color="#5700AF" offset="0"/>
<stop stop-color="#6B01D2" offset="1"/>
</linearGradient>
<circle id="b" cx="2369" cy="119" r="119"/>
<linearGradient id="o" x2="97.881%" y2="97.881%">
<stop stop-color="#69FF97" offset="0"/>
<stop stop-color="#00E4FF" offset="1"/>
</linearGradient>
<linearGradient id="h" x1="50%" x2="50%" y2="100%">
<stop stop-color="#FEBADB" offset="0"/>
<stop stop-color="#FF5DE1" offset="1"/>
</linearGradient>
<linearGradient id="g" y1="-37.348%" y2="132.62%">
<stop stop-color="#D7CBFF" offset="0"/>
<stop stop-color="#5F58FF" offset="1"/>
</linearGradient>
<linearGradient id="f" x1="50%" x2="50%" y2="100%">
<stop stop-color="#FFFE08" offset="0"/>
<stop stop-color="#FFBD00" offset="1"/>
</linearGradient>
<linearGradient id="m" x2="50%" y2="100%">
<stop stop-color="#FEBADB" offset="0"/>
<stop stop-color="#FF5DE1" offset="1"/>
</linearGradient>
</defs>
<g fill="none" fill-rule="evenodd">
<g transform="translate(-499 -81)">
<g fill-rule="nonzero">
<use fill="url(#v)" xlink:href="#a"/>
<use fill="url(#n)" xlink:href="#a"/>
</g>
<path d="m1231.8 442.18c50.743 39.972 83.23 101.5 83.23 170.51 0 66.496-30.188 126-77.785 166.02-13.964 11.751-34.874 10.466-47.202-2.9514-12.913-14.064-11.206-35.697 3.406-48.04 32.914-27.77 53.777-68.988 53.777-115.03 0-46.584-21.329-88.262-54.907-116.01l-55.049 75.973-8.843 12.203v34.389 177.21c0 18.9-15.402 34.521-34.582 34.545h-0.36352-0.35562c-19.18-0.023362-34.582-15.645-34.582-34.545v-177.21l-0.34772-37.223-0.16595-0.23362v-18.292l112.68-155.5c22.301 8.1533 42.864 19.756 61.095 34.179zm-285.82 165.75c0 46.387 21.074 87.897 54.256 115.78 14.714 12.365 16.472 34.132 3.4925 48.286-12.323 13.435-33.238 14.733-47.247 3.0013-47.984-40.165-78.449-100.08-78.449-167.06 0-69.733 33.048-131.88 84.5-171.99 18.357-14.334 39.074-25.87 61.486-33.936l41.711 57.657 26.302 37.811-44.285 57.728-45.681-64.588c-34.275 27.871-56.085 70.077-56.085 117.32z" fill="url(#l)" fill-rule="nonzero" opacity=".2"/>
<g transform="translate(818 805)">
<g fill="url(#e)">
<path d="m6.4092 71.365-0.047654 0.0021091c5.6163-5.452 2.9772-11.473 1.9583-13.308-0.0022692-0.0042182-0.0022692-0.0063272-0.0045385-0.0084363-0.19742-0.35222-0.34038-0.56524-0.34038-0.56524l0.052192 0.010546c-1.627-2.9823-2.5642-6.3463-2.5642-9.9169 0-6.0721 2.6482-11.568 6.928-15.546 3.9326-4.8383 0.95762-11.271 0.95762-11.271h0.0090769c-0.61496-1.6198-0.96669-3.3513-0.96669-5.1652 0-8.5861 7.4885-15.546 16.726-15.546 9.2358 0 16.724 6.96 16.724 15.546 0 1.8138-0.35173 3.5454-0.96669 5.1652h0.0090769s-2.975 6.4327 0.95762 11.271c4.2798 3.9777 6.928 9.474 6.928 15.546 0 3.5686-0.93492 6.9305-2.562 9.9106l0.018154-0.0042182s-0.0295 0.042182-0.074885 0.11389c-0.13162 0.24044-0.2655 0.48298-0.40846 0.7192-1.0507 2.0184-3.0748 7.405 1.5522 12.454 0.14296 0.15607 0.28819 0.30793 0.42662 0.46611 0.043115 0.044291 0.074885 0.086473 0.118 0.12865h-0.013615c3.9984 4.6337 6.406 10.51 6.406 16.915 0 14.945-13.034 27.062-29.114 27.062-16.082 0-29.117-12.117-29.117-27.062 0-6.4074 2.4054-12.281 6.4083-16.917"/>
</g>
<path d="m27.509 92.439v-22.85l-9.1504-7.9877c-0.47411-0.41413-0.47885-1.0876-0.0094822-1.5059 0.47174-0.42041 1.2351-0.4225 1.7092-0.0083663l7.4507 6.5027v-31.522c0-0.58982 0.54049-1.0667 1.2066-1.0667 0.67087 0 1.209 0.47688 1.209 1.0667v18.996l7.2468-6.3542c0.47174-0.41622 1.2351-0.41622 1.7068 0.0041832 0.47174 0.41622 0.47174 1.0897-0.0047411 1.5059l-8.9489 7.8497v22.953l8.0077-7.1386c0.467-0.41832 1.2327-0.42041 1.7092-0.0083663 0.47411 0.41413 0.47885 1.0897 0.0094822 1.508l-9.7264 8.6675v61.95h-1.209-1.2066v-49.562l-9.1504-7.9856c-0.47411-0.41622-0.47885-1.0897-0.0094822-1.508 0.47174-0.42041 1.2351-0.4225 1.7092-0.0083663l7.4507 6.5027z" fill="url(#k)"/>
</g>
<g transform="translate(2058 768)" opacity=".9">
<mask id="j" fill="white">
<use xlink:href="#i"/>
</mask>
<path d="m3.6934 40.604-0.027462 0.0012c3.2365-3.102 1.7157-6.528 1.1285-7.572-0.0013077-0.0024-0.0013077-0.0036-0.0026154-0.0048-0.11377-0.2004-0.19615-0.3216-0.19615-0.3216l0.030077 6e-3c-0.93762-1.6968-1.4777-3.6108-1.4777-5.6424 0-3.4548 1.5261-6.582 3.9924-8.8452 2.2662-2.7528 0.55185-6.4128 0.55185-6.4128h0.0052308c-0.35438-0.9216-0.55708-1.9068-0.55708-2.9388 0-4.8852 4.3154-8.8452 9.639-8.8452 5.3223 0 9.6377 3.96 9.6377 8.8452 0 1.032-0.20269 2.0172-0.55708 2.9388h0.0052307s-1.7144 3.66 0.55185 6.4128c2.4663 2.2632 3.9924 5.3904 3.9924 8.8452 0 2.0304-0.53877 3.9432-1.4764 5.6388l0.010462-0.0024s-0.017 0.024-0.043154 0.0648c-0.075846 0.1368-0.153 0.2748-0.23538 0.4092-0.60546 1.1484-1.7719 4.2132 0.89446 7.086 0.082385 0.0888 0.16608 0.1752 0.24585 0.2652 0.024846 0.0252 0.043154 0.0492 0.068 0.0732h-0.0078462c2.3042 2.6364 3.6916 5.9796 3.6916 9.624 0 8.5032-7.5114 15.397-16.778 15.397-9.2676 0-16.779-6.894-16.779-15.397 0-3.6456 1.3862-6.9876 3.6929-9.6252" fill="url(#e)" mask="url(#j)"/>
<path d="m12.123 48.945 4.064 3.7493v-13.175l-4.9911-4.6055c-0.25861-0.23878-0.26119-0.6271-0.0051722-0.86829 0.25731-0.2424 0.67367-0.2436 0.93228-0.0048238l4.064 3.7493v-18.175c0-0.34008 0.29481-0.61504 0.65815-0.61504 0.36593 0 0.65945 0.27496 0.65945 0.61504v10.952l3.9528-3.6637c0.25731-0.23998 0.67367-0.23998 0.93098 0.0024119 0.25731 0.23998 0.25731 0.6283-0.002586 0.86829l-4.8812 4.5259v13.234l4.3679-4.1159c0.25473-0.24119 0.67238-0.2424 0.93228-0.0048238 0.25861 0.23878 0.26119 0.6283 0.0051722 0.86949l-5.3053 4.9975v35.104c0 0.34129-0.29352 0.61504-0.65945 0.61504-0.36334 0-0.65815-0.27375-0.65815-0.61504v-27.961l-4.9911-4.6043c-0.25861-0.23998-0.26119-0.6283-0.0051722-0.86949 0.25731-0.2424 0.67367-0.2436 0.93228-0.0048238" fill="#009DB0"/>
</g>
<g fill-rule="nonzero" opacity=".52004">
<use fill="url(#u)" xlink:href="#d"/>
<use fill="url(#t)" xlink:href="#d"/>
</g>
<g fill-rule="nonzero" opacity=".41597">
<use fill="url(#s)" xlink:href="#c"/>
<use fill="url(#r)" xlink:href="#c"/>
</g>
<g fill-rule="nonzero" opacity=".29857">
<use fill="url(#q)" xlink:href="#b"/>
<use fill="url(#p)" xlink:href="#b"/>
</g>
<circle cx="1895" cy="326" r="3" fill="url(#o)" fill-rule="nonzero"/>
<circle cx="2001" cy="405" r="3" fill="#fff" fill-rule="nonzero" opacity=".1749"/>
<circle cx="775" cy="712" r="3" fill="#fff" fill-rule="nonzero" opacity=".1749"/>
<circle cx="891" cy="771" r="3" fill="#fff" fill-rule="nonzero" opacity=".1749"/>
<circle cx="707" cy="854" r="3" fill="#fff" fill-rule="nonzero" opacity=".1749"/>
<circle cx="2196" cy="783" r="3" fill="#fff" fill-rule="nonzero" opacity=".1749"/>
<circle cx="957" cy="334" r="5" fill="url(#h)" fill-rule="nonzero"/>
<circle cx="716" cy="238" r="9" fill="url(#g)" fill-rule="nonzero"/>
<circle cx="1256.5" cy="490.5" r="3.5" fill="url(#g)" fill-rule="nonzero"/>
<circle cx="830" cy="509" r="3" fill="url(#f)" fill-rule="nonzero"/>
<circle cx="2066" cy="639" r="3" fill="url(#f)" fill-rule="nonzero"/>
<circle cx="1724" cy="477" r="6" fill="url(#h)" fill-rule="nonzero"/>
<circle cx="2120" cy="226" r="8" fill="url(#m)" fill-rule="nonzero"/>
</g>
</g>
</svg>